<mxfile host="app.diagrams.net" modified="2022-08-18T01:34:36.029Z" agent="5.0 (Windows NT 10.0; Win64; x64) AppleWebKit/537.36 (KHTML, like Gecko) Chrome/103.0.0.0 Safari/537.36" etag="zNbA9ejXSu7cPqeq6f4u" version="20.2.3" type="github" pages="3">
  <diagram id="GyyvgpNQD2YScgq6EcZ8" name="架构图">
    <mxGraphModel dx="2239" dy="1725" grid="1" gridSize="10" guides="1" tooltips="1" connect="1" arrows="1" fold="1" page="1" pageScale="1" pageWidth="827" pageHeight="1169" math="0" shadow="0">
      <root>
        <mxCell id="0" />
        <mxCell id="1" parent="0" />
        <mxCell id="OnMQXUsQuM_lED_xJwlF-53" value="" style="rounded=0;whiteSpace=wrap;html=1;fontSize=20;fillColor=#777DA7;strokeColor=#777DA7;fontColor=#333333;fillStyle=hatch;" parent="1" vertex="1">
          <mxGeometry x="130" y="42" width="450" height="120" as="geometry" />
        </mxCell>
        <mxCell id="OnMQXUsQuM_lED_xJwlF-19" value="" style="endArrow=none;dashed=1;html=1;fontSize=20;strokeColor=#f79824;strokeWidth=2;rounded=0;" parent="1" edge="1">
          <mxGeometry width="50" height="50" relative="1" as="geometry">
            <mxPoint x="112.37" y="-1168" as="sourcePoint" />
            <mxPoint x="112" y="570" as="targetPoint" />
          </mxGeometry>
        </mxCell>
        <mxCell id="OnMQXUsQuM_lED_xJwlF-27" value="" style="rounded=0;whiteSpace=wrap;html=1;fillColor=#78a798;fontSize=20;strokeColor=none;comic=0;fontColor=#333333;" parent="1" vertex="1">
          <mxGeometry x="-522" y="-90" width="1100" height="50" as="geometry" />
        </mxCell>
        <mxCell id="OnMQXUsQuM_lED_xJwlF-23" value="" style="rounded=0;whiteSpace=wrap;html=1;fillColor=#8cc0b2;fontSize=20;strokeColor=none;comic=0;fontColor=#333333;" parent="1" vertex="1">
          <mxGeometry x="-522" y="-283.5" width="1100" height="95" as="geometry" />
        </mxCell>
        <mxCell id="nY-FzgrsEUIEL5FHPldE-1" value="" style="rounded=0;whiteSpace=wrap;html=1;fillColor=#d6e5e3;fontSize=20;strokeColor=none;fillStyle=auto;" parent="1" vertex="1">
          <mxGeometry x="-522" y="-740" width="1100" height="100" as="geometry" />
        </mxCell>
        <mxCell id="nY-FzgrsEUIEL5FHPldE-2" value="" style="rounded=0;whiteSpace=wrap;html=1;fillColor=#bbdfd7;fontSize=20;strokeColor=none;" parent="1" vertex="1">
          <mxGeometry x="-522" y="-590" width="1100" height="100" as="geometry" />
        </mxCell>
        <mxCell id="nY-FzgrsEUIEL5FHPldE-3" value="" style="rounded=0;whiteSpace=wrap;html=1;fillColor=#9fd8cb;fontSize=20;strokeColor=none;comic=0;" parent="1" vertex="1">
          <mxGeometry x="-522" y="-445" width="1100" height="95" as="geometry" />
        </mxCell>
        <mxCell id="nY-FzgrsEUIEL5FHPldE-4" value="" style="rounded=0;whiteSpace=wrap;html=1;fontSize=20;fillColor=#517664;strokeColor=none;" parent="1" vertex="1">
          <mxGeometry x="-522" y="42" width="622" height="120" as="geometry" />
        </mxCell>
        <mxCell id="nY-FzgrsEUIEL5FHPldE-5" value="浏览器" style="rounded=0;whiteSpace=wrap;html=1;fontSize=20;strokeColor=#31393c;" parent="1" vertex="1">
          <mxGeometry x="-472" y="-720" width="1020" height="60" as="geometry" />
        </mxCell>
        <mxCell id="nY-FzgrsEUIEL5FHPldE-6" value="请求代理层" style="rounded=0;whiteSpace=wrap;html=1;fontSize=20;strokeColor=#31393c;" parent="1" vertex="1">
          <mxGeometry x="-472" y="-570" width="1020" height="60" as="geometry" />
        </mxCell>
        <mxCell id="nY-FzgrsEUIEL5FHPldE-11" value="平台" style="rounded=0;whiteSpace=wrap;html=1;fontSize=18;strokeColor=#31393c;" parent="1" vertex="1">
          <mxGeometry x="-292" y="-427.5" width="120" height="60" as="geometry" />
        </mxCell>
        <mxCell id="nY-FzgrsEUIEL5FHPldE-12" value="" style="edgeStyle=orthogonalEdgeStyle;rounded=0;orthogonalLoop=1;jettySize=auto;html=1;endArrow=none;endFill=0;" parent="1" source="nY-FzgrsEUIEL5FHPldE-13" target="nY-FzgrsEUIEL5FHPldE-17" edge="1">
          <mxGeometry relative="1" as="geometry">
            <mxPoint x="-377" y="-18" as="targetPoint" />
          </mxGeometry>
        </mxCell>
        <mxCell id="nY-FzgrsEUIEL5FHPldE-13" value="Portal 1.0.0" style="rounded=0;whiteSpace=wrap;html=1;verticalAlign=top;strokeColor=#31393c;fontSize=14;" parent="1" vertex="1">
          <mxGeometry x="-482" y="52" width="210" height="100" as="geometry" />
        </mxCell>
        <mxCell id="nY-FzgrsEUIEL5FHPldE-14" value="" style="html=1;dashed=0;whitespace=wrap;fillColor=#2875E2;strokeColor=#ffffff;points=[[0.005,0.63,0],[0.1,0.2,0],[0.9,0.2,0],[0.5,0,0],[0.995,0.63,0],[0.72,0.99,0],[0.5,1,0],[0.28,0.99,0]];shape=mxgraph.kubernetes.icon;prIcon=pod" parent="1" vertex="1">
          <mxGeometry x="-472" y="92" width="50" height="48" as="geometry" />
        </mxCell>
        <mxCell id="nY-FzgrsEUIEL5FHPldE-15" value="" style="html=1;dashed=0;whitespace=wrap;fillColor=#2875E2;strokeColor=#ffffff;points=[[0.005,0.63,0],[0.1,0.2,0],[0.9,0.2,0],[0.5,0,0],[0.995,0.63,0],[0.72,0.99,0],[0.5,1,0],[0.28,0.99,0]];shape=mxgraph.kubernetes.icon;prIcon=svc" parent="1" vertex="1">
          <mxGeometry x="-332" y="92" width="50" height="48" as="geometry" />
        </mxCell>
        <mxCell id="nY-FzgrsEUIEL5FHPldE-16" value="" style="html=1;dashed=0;whitespace=wrap;fillColor=#2875E2;strokeColor=#ffffff;points=[[0.005,0.63,0],[0.1,0.2,0],[0.9,0.2,0],[0.5,0,0],[0.995,0.63,0],[0.72,0.99,0],[0.5,1,0],[0.28,0.99,0]];shape=mxgraph.kubernetes.icon;prIcon=cm" parent="1" vertex="1">
          <mxGeometry x="-402" y="92" width="50" height="48" as="geometry" />
        </mxCell>
        <mxCell id="nY-FzgrsEUIEL5FHPldE-17" value="" style="ellipse;whiteSpace=wrap;html=1;aspect=fixed;" parent="1" vertex="1">
          <mxGeometry x="-387" y="-72.5" width="20" height="20" as="geometry" />
        </mxCell>
        <mxCell id="nY-FzgrsEUIEL5FHPldE-18" value="" style="edgeStyle=orthogonalEdgeStyle;rounded=0;orthogonalLoop=1;jettySize=auto;html=1;endArrow=none;endFill=0;" parent="1" source="nY-FzgrsEUIEL5FHPldE-19" target="nY-FzgrsEUIEL5FHPldE-23" edge="1">
          <mxGeometry relative="1" as="geometry">
            <mxPoint x="-118" y="-18" as="targetPoint" />
          </mxGeometry>
        </mxCell>
        <mxCell id="nY-FzgrsEUIEL5FHPldE-19" value="Control 1.0.0" style="rounded=0;whiteSpace=wrap;html=1;verticalAlign=top;strokeColor=#31393c;fontSize=14;" parent="1" vertex="1">
          <mxGeometry x="-240" y="52" width="84" height="100" as="geometry" />
        </mxCell>
        <mxCell id="nY-FzgrsEUIEL5FHPldE-23" value="" style="ellipse;whiteSpace=wrap;html=1;aspect=fixed;" parent="1" vertex="1">
          <mxGeometry x="-208" y="-72.5" width="20" height="20" as="geometry" />
        </mxCell>
        <mxCell id="nY-FzgrsEUIEL5FHPldE-24" value="" style="edgeStyle=orthogonalEdgeStyle;rounded=0;orthogonalLoop=1;jettySize=auto;html=1;endArrow=none;endFill=0;" parent="1" source="nY-FzgrsEUIEL5FHPldE-25" target="nY-FzgrsEUIEL5FHPldE-29" edge="1">
          <mxGeometry relative="1" as="geometry">
            <mxPoint x="-13" y="-18" as="targetPoint" />
          </mxGeometry>
        </mxCell>
        <mxCell id="nY-FzgrsEUIEL5FHPldE-25" value="Cert 1.0.0" style="rounded=0;whiteSpace=wrap;html=1;verticalAlign=top;strokeColor=#31393c;fontSize=14;" parent="1" vertex="1">
          <mxGeometry x="-126" y="52" width="84" height="100" as="geometry" />
        </mxCell>
        <mxCell id="nY-FzgrsEUIEL5FHPldE-29" value="" style="ellipse;whiteSpace=wrap;html=1;aspect=fixed;" parent="1" vertex="1">
          <mxGeometry x="-94" y="-72.5" width="20" height="20" as="geometry" />
        </mxCell>
        <mxCell id="nY-FzgrsEUIEL5FHPldE-30" value="" style="edgeStyle=orthogonalEdgeStyle;rounded=0;orthogonalLoop=1;jettySize=auto;html=1;endArrow=none;endFill=0;" parent="1" source="nY-FzgrsEUIEL5FHPldE-31" target="nY-FzgrsEUIEL5FHPldE-35" edge="1">
          <mxGeometry relative="1" as="geometry">
            <mxPoint x="103" y="-18" as="targetPoint" />
          </mxGeometry>
        </mxCell>
        <mxCell id="nY-FzgrsEUIEL5FHPldE-31" value="App 1.0.0" style="rounded=0;whiteSpace=wrap;html=1;verticalAlign=top;strokeColor=#31393c;fontSize=14;" parent="1" vertex="1">
          <mxGeometry x="-8" y="52" width="84" height="100" as="geometry" />
        </mxCell>
        <mxCell id="nY-FzgrsEUIEL5FHPldE-35" value="" style="ellipse;whiteSpace=wrap;html=1;aspect=fixed;" parent="1" vertex="1">
          <mxGeometry x="24" y="-72.5" width="20" height="20" as="geometry" />
        </mxCell>
        <mxCell id="nY-FzgrsEUIEL5FHPldE-40" value="产品" style="text;html=1;align=center;verticalAlign=middle;resizable=0;points=[];autosize=1;fontSize=20;fontStyle=1;fontColor=#2E282A;" parent="1" vertex="1">
          <mxGeometry x="-662" y="-415" width="60" height="30" as="geometry" />
        </mxCell>
        <mxCell id="nY-FzgrsEUIEL5FHPldE-41" value="" style="endArrow=none;dashed=1;html=1;fontSize=20;" parent="1" edge="1">
          <mxGeometry width="50" height="50" relative="1" as="geometry">
            <mxPoint x="-722" y="-617" as="sourcePoint" />
            <mxPoint x="679" y="-617" as="targetPoint" />
          </mxGeometry>
        </mxCell>
        <mxCell id="nY-FzgrsEUIEL5FHPldE-42" value="请求层" style="text;html=1;align=center;verticalAlign=middle;resizable=0;points=[];autosize=1;fontSize=20;fontStyle=1;fontColor=#2E282A;" parent="1" vertex="1">
          <mxGeometry x="-672" y="-555" width="80" height="30" as="geometry" />
        </mxCell>
        <mxCell id="nY-FzgrsEUIEL5FHPldE-43" value="用户请求" style="text;html=1;align=center;verticalAlign=middle;resizable=0;points=[];autosize=1;fontSize=20;fontStyle=1;fontColor=#2E282A;" parent="1" vertex="1">
          <mxGeometry x="-682" y="-705" width="100" height="30" as="geometry" />
        </mxCell>
        <mxCell id="nY-FzgrsEUIEL5FHPldE-44" value="" style="endArrow=none;dashed=1;html=1;fontSize=20;comic=0;" parent="1" edge="1">
          <mxGeometry width="50" height="50" relative="1" as="geometry">
            <mxPoint x="-727.4999999999998" y="-470.0000000000002" as="sourcePoint" />
            <mxPoint x="673.5" y="-470.0000000000002" as="targetPoint" />
          </mxGeometry>
        </mxCell>
        <mxCell id="nY-FzgrsEUIEL5FHPldE-45" value="前端应用" style="text;html=1;align=center;verticalAlign=middle;resizable=0;points=[];autosize=1;fontSize=18;fontStyle=0" parent="1" vertex="1">
          <mxGeometry x="-652" y="82" width="100" height="40" as="geometry" />
        </mxCell>
        <mxCell id="nY-FzgrsEUIEL5FHPldE-46" value="" style="endArrow=none;dashed=1;html=1;fontSize=20;comic=0;" parent="1" edge="1">
          <mxGeometry width="50" height="50" relative="1" as="geometry">
            <mxPoint x="-727.4999999999998" y="12" as="sourcePoint" />
            <mxPoint x="673.5" y="12" as="targetPoint" />
          </mxGeometry>
        </mxCell>
        <mxCell id="nY-FzgrsEUIEL5FHPldE-47" value="后端&lt;br style=&quot;font-size: 18px;&quot;&gt;微服务群" style="text;html=1;align=center;verticalAlign=middle;resizable=0;points=[];autosize=1;fontSize=18;fontStyle=0" parent="1" vertex="1">
          <mxGeometry x="-652" y="287" width="100" height="60" as="geometry" />
        </mxCell>
        <mxCell id="nY-FzgrsEUIEL5FHPldE-48" value="Micro Service" style="rounded=1;whiteSpace=wrap;html=1;comic=0;fillColor=#313937;fontSize=16;strokeColor=none;fontColor=#fffffb;" parent="1" vertex="1">
          <mxGeometry x="-522" y="242" width="160" height="60" as="geometry" />
        </mxCell>
        <mxCell id="nY-FzgrsEUIEL5FHPldE-49" value="Micro Service" style="rounded=1;whiteSpace=wrap;html=1;comic=0;fillColor=#313937;fontSize=16;strokeColor=none;fontColor=#fffffb;" parent="1" vertex="1">
          <mxGeometry x="-304" y="242" width="160" height="60" as="geometry" />
        </mxCell>
        <mxCell id="nY-FzgrsEUIEL5FHPldE-50" value="Micro Service" style="rounded=1;whiteSpace=wrap;html=1;comic=0;fillColor=#313937;fontSize=16;strokeColor=none;fontColor=#fffffb;" parent="1" vertex="1">
          <mxGeometry x="-305" y="470" width="160" height="60" as="geometry" />
        </mxCell>
        <mxCell id="nY-FzgrsEUIEL5FHPldE-51" value="Micro Service" style="rounded=1;whiteSpace=wrap;html=1;comic=0;fillColor=#313937;fontSize=16;strokeColor=none;fontColor=#fffffb;" parent="1" vertex="1">
          <mxGeometry x="-522" y="470" width="160" height="60" as="geometry" />
        </mxCell>
        <mxCell id="nY-FzgrsEUIEL5FHPldE-52" value="Micro Service" style="rounded=1;whiteSpace=wrap;html=1;comic=0;fillColor=#313937;fontSize=16;strokeColor=none;fontColor=#fffffb;" parent="1" vertex="1">
          <mxGeometry x="-87" y="242" width="160" height="60" as="geometry" />
        </mxCell>
        <mxCell id="nY-FzgrsEUIEL5FHPldE-53" value="Micro Service" style="rounded=1;whiteSpace=wrap;html=1;comic=0;fillColor=#313937;fontSize=16;strokeColor=none;fontColor=#fffffb;" parent="1" vertex="1">
          <mxGeometry x="-522" y="352" width="160" height="60" as="geometry" />
        </mxCell>
        <mxCell id="nY-FzgrsEUIEL5FHPldE-54" value="Micro Service" style="rounded=1;whiteSpace=wrap;html=1;comic=0;fillColor=#313937;fontSize=16;strokeColor=none;fontColor=#fffffb;" parent="1" vertex="1">
          <mxGeometry x="-304" y="352" width="160" height="60" as="geometry" />
        </mxCell>
        <mxCell id="nY-FzgrsEUIEL5FHPldE-55" value="Micro Service" style="rounded=1;whiteSpace=wrap;html=1;comic=0;fillColor=#313937;fontSize=16;strokeColor=none;fontColor=#fffffb;" parent="1" vertex="1">
          <mxGeometry x="-87" y="470" width="160" height="60" as="geometry" />
        </mxCell>
        <mxCell id="nY-FzgrsEUIEL5FHPldE-57" value="Micro Service" style="rounded=1;whiteSpace=wrap;html=1;comic=0;fillColor=#313937;fontSize=16;strokeColor=none;fontColor=#fffffb;" parent="1" vertex="1">
          <mxGeometry x="-87" y="352" width="160" height="60" as="geometry" />
        </mxCell>
        <mxCell id="nY-FzgrsEUIEL5FHPldE-58" value="Docker 集群" style="text;html=1;align=center;verticalAlign=middle;resizable=0;points=[];autosize=1;fontSize=20;fontStyle=1;fontColor=#2E282A;" parent="1" vertex="1">
          <mxGeometry x="-702" y="177" width="140" height="40" as="geometry" />
        </mxCell>
        <mxCell id="OnMQXUsQuM_lED_xJwlF-11" value="稳定客户" style="swimlane;fontSize=18;startSize=23;fillColor=none;strokeColor=none;fillStyle=auto;swimlaneFillColor=none;" parent="1" vertex="1">
          <mxGeometry x="-397" y="-1134" width="365" height="270" as="geometry" />
        </mxCell>
        <mxCell id="OnMQXUsQuM_lED_xJwlF-5" value="客户 B" style="points=[[0.35,0,0],[0.98,0.51,0],[1,0.71,0],[0.67,1,0],[0,0.795,0],[0,0.65,0]];verticalLabelPosition=bottom;sketch=0;html=1;verticalAlign=top;aspect=fixed;align=center;pointerEvents=1;shape=mxgraph.cisco19.user;fillColor=#2e282a;strokeColor=#005700;fontSize=16;fontColor=#000000;swimlaneFillColor=#2e282a;" parent="OnMQXUsQuM_lED_xJwlF-11" vertex="1">
          <mxGeometry x="212.5" y="50" width="60" height="60" as="geometry" />
        </mxCell>
        <mxCell id="OnMQXUsQuM_lED_xJwlF-7" value="客户 A" style="points=[[0.35,0,0],[0.98,0.51,0],[1,0.71,0],[0.67,1,0],[0,0.795,0],[0,0.65,0]];verticalLabelPosition=bottom;sketch=0;html=1;verticalAlign=top;aspect=fixed;align=center;pointerEvents=1;shape=mxgraph.cisco19.user;fillColor=#2e282a;strokeColor=#005700;fontSize=16;fontColor=#000000;swimlaneFillColor=#2e282a;" parent="OnMQXUsQuM_lED_xJwlF-11" vertex="1">
          <mxGeometry x="92.5" y="50" width="60" height="60" as="geometry" />
        </mxCell>
        <mxCell id="OnMQXUsQuM_lED_xJwlF-8" value="....." style="points=[[0.35,0,0],[0.98,0.51,0],[1,0.71,0],[0.67,1,0],[0,0.795,0],[0,0.65,0]];verticalLabelPosition=bottom;sketch=0;html=1;verticalAlign=top;aspect=fixed;align=center;pointerEvents=1;shape=mxgraph.cisco19.user;fillColor=#2e282a;strokeColor=#005700;fontSize=16;fontColor=#000000;swimlaneFillColor=#2e282a;" parent="OnMQXUsQuM_lED_xJwlF-11" vertex="1">
          <mxGeometry x="212.5" y="160" width="60" height="60" as="geometry" />
        </mxCell>
        <mxCell id="OnMQXUsQuM_lED_xJwlF-9" value="客户 C" style="points=[[0.35,0,0],[0.98,0.51,0],[1,0.71,0],[0.67,1,0],[0,0.795,0],[0,0.65,0]];verticalLabelPosition=bottom;sketch=0;html=1;verticalAlign=top;aspect=fixed;align=center;pointerEvents=1;shape=mxgraph.cisco19.user;fillColor=#2e282a;strokeColor=#005700;fontSize=16;fontColor=#000000;swimlaneFillColor=#2e282a;" parent="OnMQXUsQuM_lED_xJwlF-11" vertex="1">
          <mxGeometry x="92.5" y="160" width="60" height="60" as="geometry" />
        </mxCell>
        <mxCell id="OnMQXUsQuM_lED_xJwlF-12" value="" style="shape=flexArrow;endArrow=classic;html=1;rounded=0;fontSize=16;strokeColor=#2E282A;strokeWidth=2;" parent="1" edge="1">
          <mxGeometry width="50" height="50" relative="1" as="geometry">
            <mxPoint x="-247" y="-844" as="sourcePoint" />
            <mxPoint x="-247" y="-754" as="targetPoint" />
          </mxGeometry>
        </mxCell>
        <mxCell id="OnMQXUsQuM_lED_xJwlF-45" value="携带 cookie: appMode=standard" style="edgeLabel;html=1;align=center;verticalAlign=middle;resizable=0;points=[];fontSize=18;fontColor=#000000;" parent="OnMQXUsQuM_lED_xJwlF-12" vertex="1" connectable="0">
          <mxGeometry x="-0.3556" y="1" relative="1" as="geometry">
            <mxPoint as="offset" />
          </mxGeometry>
        </mxCell>
        <mxCell id="OnMQXUsQuM_lED_xJwlF-13" value="抢先体验客户" style="swimlane;fontSize=18;startSize=23;fillColor=none;strokeColor=none;fillStyle=hatch;swimlaneFillColor=none;sketch=0;" parent="1" vertex="1">
          <mxGeometry x="213" y="-1134" width="365" height="270" as="geometry">
            <mxRectangle x="213" y="-1134" width="150" height="40" as="alternateBounds" />
          </mxGeometry>
        </mxCell>
        <mxCell id="OnMQXUsQuM_lED_xJwlF-14" value="灰度客户 B" style="points=[[0.35,0,0],[0.98,0.51,0],[1,0.71,0],[0.67,1,0],[0,0.795,0],[0,0.65,0]];verticalLabelPosition=bottom;sketch=0;html=1;verticalAlign=top;aspect=fixed;align=center;pointerEvents=1;shape=mxgraph.cisco19.user;fillColor=#777DA7;strokeColor=#001DBC;fontSize=16;fontColor=#000000;swimlaneFillColor=#777DA7;" parent="OnMQXUsQuM_lED_xJwlF-13" vertex="1">
          <mxGeometry x="212.5" y="50" width="60" height="60" as="geometry" />
        </mxCell>
        <mxCell id="OnMQXUsQuM_lED_xJwlF-15" value="灰度客户 A" style="points=[[0.35,0,0],[0.98,0.51,0],[1,0.71,0],[0.67,1,0],[0,0.795,0],[0,0.65,0]];verticalLabelPosition=bottom;sketch=0;html=1;verticalAlign=top;aspect=fixed;align=center;pointerEvents=1;shape=mxgraph.cisco19.user;fillColor=#777DA7;strokeColor=#001DBC;fontSize=16;fontColor=#000000;swimlaneFillColor=#777DA7;" parent="OnMQXUsQuM_lED_xJwlF-13" vertex="1">
          <mxGeometry x="92.5" y="50" width="60" height="60" as="geometry" />
        </mxCell>
        <mxCell id="OnMQXUsQuM_lED_xJwlF-16" value="....." style="points=[[0.35,0,0],[0.98,0.51,0],[1,0.71,0],[0.67,1,0],[0,0.795,0],[0,0.65,0]];verticalLabelPosition=bottom;sketch=0;html=1;verticalAlign=top;aspect=fixed;align=center;pointerEvents=1;shape=mxgraph.cisco19.user;fillColor=#777DA7;strokeColor=#001DBC;fontSize=16;fontColor=#000000;swimlaneFillColor=#777DA7;" parent="OnMQXUsQuM_lED_xJwlF-13" vertex="1">
          <mxGeometry x="212.5" y="160" width="60" height="60" as="geometry" />
        </mxCell>
        <mxCell id="OnMQXUsQuM_lED_xJwlF-17" value="灰度客户 C" style="points=[[0.35,0,0],[0.98,0.51,0],[1,0.71,0],[0.67,1,0],[0,0.795,0],[0,0.65,0]];verticalLabelPosition=bottom;sketch=0;html=1;verticalAlign=top;aspect=fixed;align=center;pointerEvents=1;shape=mxgraph.cisco19.user;fillColor=#777DA7;strokeColor=#001DBC;fontSize=16;fontColor=#000000;swimlaneFillColor=#777DA7;" parent="OnMQXUsQuM_lED_xJwlF-13" vertex="1">
          <mxGeometry x="92.5" y="160" width="60" height="60" as="geometry" />
        </mxCell>
        <mxCell id="OnMQXUsQuM_lED_xJwlF-18" value="" style="shape=flexArrow;endArrow=classic;html=1;rounded=0;fontSize=16;strokeColor=#777DA7;sketch=0;strokeWidth=2;" parent="1" edge="1">
          <mxGeometry width="50" height="50" relative="1" as="geometry">
            <mxPoint x="363" y="-844" as="sourcePoint" />
            <mxPoint x="363" y="-754" as="targetPoint" />
          </mxGeometry>
        </mxCell>
        <mxCell id="OnMQXUsQuM_lED_xJwlF-46" value="携带 cookie: appMode=gray" style="edgeLabel;html=1;align=center;verticalAlign=middle;resizable=0;points=[];fontSize=16;fontColor=#000000;" parent="OnMQXUsQuM_lED_xJwlF-18" vertex="1" connectable="0">
          <mxGeometry x="-0.3278" y="-4" relative="1" as="geometry">
            <mxPoint as="offset" />
          </mxGeometry>
        </mxCell>
        <mxCell id="OnMQXUsQuM_lED_xJwlF-50" value="携带 cookie: appMode=gray" style="edgeLabel;html=1;align=center;verticalAlign=middle;resizable=0;points=[];fontSize=16;fontColor=#000000;" parent="OnMQXUsQuM_lED_xJwlF-18" vertex="1" connectable="0">
          <mxGeometry x="-0.3278" y="-4" relative="1" as="geometry">
            <mxPoint x="1" as="offset" />
          </mxGeometry>
        </mxCell>
        <mxCell id="OnMQXUsQuM_lED_xJwlF-51" value="携带 cookie: appMode=gray" style="edgeLabel;html=1;align=center;verticalAlign=middle;resizable=0;points=[];fontSize=16;fontColor=#000000;" parent="OnMQXUsQuM_lED_xJwlF-18" vertex="1" connectable="0">
          <mxGeometry x="-0.3278" y="-4" relative="1" as="geometry">
            <mxPoint x="1" as="offset" />
          </mxGeometry>
        </mxCell>
        <mxCell id="OnMQXUsQuM_lED_xJwlF-52" value="携带 cookie: appMode=gray" style="edgeLabel;html=1;align=center;verticalAlign=middle;resizable=0;points=[];fontSize=18;fontColor=#000000;" parent="OnMQXUsQuM_lED_xJwlF-18" vertex="1" connectable="0">
          <mxGeometry x="-0.3278" y="-4" relative="1" as="geometry">
            <mxPoint x="1" as="offset" />
          </mxGeometry>
        </mxCell>
        <mxCell id="OnMQXUsQuM_lED_xJwlF-21" value="" style="endArrow=none;dashed=1;html=1;fontSize=20;comic=0;" parent="1" edge="1">
          <mxGeometry width="50" height="50" relative="1" as="geometry">
            <mxPoint x="-727.4999999999998" y="-320" as="sourcePoint" />
            <mxPoint x="673.5" y="-320" as="targetPoint" />
          </mxGeometry>
        </mxCell>
        <mxCell id="OnMQXUsQuM_lED_xJwlF-22" value="Ingress Gateway" style="text;html=1;align=center;verticalAlign=middle;resizable=0;points=[];autosize=1;fontSize=20;fontStyle=1;fontColor=#2E282A;" parent="1" vertex="1">
          <mxGeometry x="-722" y="-256" width="180" height="40" as="geometry" />
        </mxCell>
        <mxCell id="OnMQXUsQuM_lED_xJwlF-25" value="istio-gateway 流量“染色”" style="rounded=0;whiteSpace=wrap;html=1;fontSize=20;strokeColor=#31393c;" parent="1" vertex="1">
          <mxGeometry x="-472" y="-266" width="1020" height="60" as="geometry" />
        </mxCell>
        <mxCell id="OnMQXUsQuM_lED_xJwlF-26" value="" style="endArrow=none;dashed=1;html=1;fontSize=20;comic=0;" parent="1" edge="1">
          <mxGeometry width="50" height="50" relative="1" as="geometry">
            <mxPoint x="-727.4999999999998" y="-140" as="sourcePoint" />
            <mxPoint x="673.5" y="-140" as="targetPoint" />
          </mxGeometry>
        </mxCell>
        <mxCell id="OnMQXUsQuM_lED_xJwlF-28" value="Nginx" style="text;html=1;align=center;verticalAlign=middle;resizable=0;points=[];autosize=1;fontSize=20;fontStyle=1;fontColor=#2E282A;" parent="1" vertex="1">
          <mxGeometry x="-672" y="-85" width="80" height="40" as="geometry" />
        </mxCell>
        <mxCell id="OnMQXUsQuM_lED_xJwlF-29" value="" style="edgeStyle=orthogonalEdgeStyle;rounded=0;orthogonalLoop=1;jettySize=auto;html=1;endArrow=none;endFill=0;" parent="1" source="OnMQXUsQuM_lED_xJwlF-30" target="OnMQXUsQuM_lED_xJwlF-34" edge="1">
          <mxGeometry relative="1" as="geometry">
            <mxPoint x="265" y="-18" as="targetPoint" />
          </mxGeometry>
        </mxCell>
        <mxCell id="OnMQXUsQuM_lED_xJwlF-30" value="Cert 1.0.1" style="rounded=0;whiteSpace=wrap;html=1;verticalAlign=top;strokeColor=#31393c;fontSize=14;" parent="1" vertex="1">
          <mxGeometry x="160" y="52" width="210" height="100" as="geometry" />
        </mxCell>
        <mxCell id="OnMQXUsQuM_lED_xJwlF-31" value="" style="html=1;dashed=0;whitespace=wrap;fillColor=#2875E2;strokeColor=#ffffff;points=[[0.005,0.63,0],[0.1,0.2,0],[0.9,0.2,0],[0.5,0,0],[0.995,0.63,0],[0.72,0.99,0],[0.5,1,0],[0.28,0.99,0]];shape=mxgraph.kubernetes.icon;prIcon=pod" parent="1" vertex="1">
          <mxGeometry x="170" y="92" width="50" height="48" as="geometry" />
        </mxCell>
        <mxCell id="OnMQXUsQuM_lED_xJwlF-32" value="" style="html=1;dashed=0;whitespace=wrap;fillColor=#2875E2;strokeColor=#ffffff;points=[[0.005,0.63,0],[0.1,0.2,0],[0.9,0.2,0],[0.5,0,0],[0.995,0.63,0],[0.72,0.99,0],[0.5,1,0],[0.28,0.99,0]];shape=mxgraph.kubernetes.icon;prIcon=svc" parent="1" vertex="1">
          <mxGeometry x="310" y="92" width="50" height="48" as="geometry" />
        </mxCell>
        <mxCell id="OnMQXUsQuM_lED_xJwlF-33" value="" style="html=1;dashed=0;whitespace=wrap;fillColor=#2875E2;strokeColor=#ffffff;points=[[0.005,0.63,0],[0.1,0.2,0],[0.9,0.2,0],[0.5,0,0],[0.995,0.63,0],[0.72,0.99,0],[0.5,1,0],[0.28,0.99,0]];shape=mxgraph.kubernetes.icon;prIcon=cm" parent="1" vertex="1">
          <mxGeometry x="240" y="92" width="50" height="48" as="geometry" />
        </mxCell>
        <mxCell id="OnMQXUsQuM_lED_xJwlF-34" value="" style="ellipse;whiteSpace=wrap;html=1;aspect=fixed;" parent="1" vertex="1">
          <mxGeometry x="255" y="-72.5" width="20" height="20" as="geometry" />
        </mxCell>
        <mxCell id="OnMQXUsQuM_lED_xJwlF-35" value="" style="edgeStyle=orthogonalEdgeStyle;rounded=0;orthogonalLoop=1;jettySize=auto;html=1;endArrow=none;endFill=0;" parent="1" source="OnMQXUsQuM_lED_xJwlF-36" target="OnMQXUsQuM_lED_xJwlF-37" edge="1">
          <mxGeometry relative="1" as="geometry">
            <mxPoint x="562" y="-18" as="targetPoint" />
          </mxGeometry>
        </mxCell>
        <mxCell id="OnMQXUsQuM_lED_xJwlF-36" value="App 1.0.1" style="rounded=0;whiteSpace=wrap;html=1;verticalAlign=top;strokeColor=#31393c;" parent="1" vertex="1">
          <mxGeometry x="440" y="52" width="84" height="100" as="geometry" />
        </mxCell>
        <mxCell id="OnMQXUsQuM_lED_xJwlF-37" value="" style="ellipse;whiteSpace=wrap;html=1;aspect=fixed;" parent="1" vertex="1">
          <mxGeometry x="472" y="-72.5" width="20" height="20" as="geometry" />
        </mxCell>
        <mxCell id="nY-FzgrsEUIEL5FHPldE-7" style="rounded=0;orthogonalLoop=1;jettySize=auto;html=1;entryX=0.5;entryY=0;entryDx=0;entryDy=0;endArrow=none;endFill=0;exitX=0.5;exitY=1;exitDx=0;exitDy=0;strokeColor=#2E282A;strokeWidth=2;" parent="1" source="nY-FzgrsEUIEL5FHPldE-11" target="nY-FzgrsEUIEL5FHPldE-17" edge="1">
          <mxGeometry relative="1" as="geometry" />
        </mxCell>
        <mxCell id="nY-FzgrsEUIEL5FHPldE-9" style="rounded=0;orthogonalLoop=1;jettySize=auto;html=1;entryX=0.5;entryY=0;entryDx=0;entryDy=0;endArrow=none;endFill=0;exitX=0.5;exitY=1;exitDx=0;exitDy=0;strokeColor=#2E282A;dashed=1;strokeWidth=2;" parent="1" source="nY-FzgrsEUIEL5FHPldE-11" target="nY-FzgrsEUIEL5FHPldE-29" edge="1">
          <mxGeometry relative="1" as="geometry">
            <mxPoint x="-232" y="-370" as="sourcePoint" />
          </mxGeometry>
        </mxCell>
        <mxCell id="nY-FzgrsEUIEL5FHPldE-10" style="edgeStyle=none;rounded=0;orthogonalLoop=1;jettySize=auto;html=1;exitX=0.5;exitY=1;exitDx=0;exitDy=0;entryX=0.5;entryY=0;entryDx=0;entryDy=0;endArrow=none;endFill=0;fontSize=20;strokeColor=#2E282A;dashed=1;strokeWidth=2;" parent="1" source="nY-FzgrsEUIEL5FHPldE-11" target="nY-FzgrsEUIEL5FHPldE-35" edge="1">
          <mxGeometry relative="1" as="geometry" />
        </mxCell>
        <mxCell id="OnMQXUsQuM_lED_xJwlF-48" style="rounded=0;orthogonalLoop=1;jettySize=auto;html=1;entryX=0.5;entryY=0;entryDx=0;entryDy=0;endArrow=none;endFill=0;exitX=0.5;exitY=1;exitDx=0;exitDy=0;strokeColor=#777DA7;strokeWidth=2;sketch=0;" parent="1" source="nY-FzgrsEUIEL5FHPldE-11" target="OnMQXUsQuM_lED_xJwlF-34" edge="1">
          <mxGeometry relative="1" as="geometry">
            <mxPoint x="-230" y="-370" as="sourcePoint" />
            <mxPoint x="249" y="-72.5" as="targetPoint" />
            <Array as="points" />
          </mxGeometry>
        </mxCell>
        <mxCell id="OnMQXUsQuM_lED_xJwlF-49" style="edgeStyle=none;rounded=0;orthogonalLoop=1;jettySize=auto;html=1;exitX=0.5;exitY=1;exitDx=0;exitDy=0;entryX=0.5;entryY=0;entryDx=0;entryDy=0;endArrow=none;endFill=0;fontSize=20;strokeColor=#777DA7;strokeWidth=2;sketch=0;" parent="1" source="nY-FzgrsEUIEL5FHPldE-11" target="OnMQXUsQuM_lED_xJwlF-37" edge="1">
          <mxGeometry relative="1" as="geometry">
            <mxPoint x="-232" y="-370" as="sourcePoint" />
            <mxPoint x="66" y="-72.5" as="targetPoint" />
            <Array as="points" />
          </mxGeometry>
        </mxCell>
        <mxCell id="OnMQXUsQuM_lED_xJwlF-54" value="灰度 Docker 集群" style="text;html=1;align=center;verticalAlign=middle;resizable=0;points=[];autosize=1;fontSize=20;fontStyle=1;fontColor=#2E282A;" parent="1" vertex="1">
          <mxGeometry x="48" y="182" width="180" height="40" as="geometry" />
        </mxCell>
        <mxCell id="OnMQXUsQuM_lED_xJwlF-62" value="向上兼容" style="edgeStyle=orthogonalEdgeStyle;rounded=0;orthogonalLoop=1;jettySize=auto;html=1;fontSize=12;fontColor=#000000;strokeColor=#000000;strokeWidth=1;" parent="1" source="OnMQXUsQuM_lED_xJwlF-55" target="nY-FzgrsEUIEL5FHPldE-52" edge="1">
          <mxGeometry relative="1" as="geometry" />
        </mxCell>
        <mxCell id="OnMQXUsQuM_lED_xJwlF-55" value="Micro Service" style="rounded=1;whiteSpace=wrap;html=1;comic=0;fillColor=#777DA7;fontSize=16;strokeColor=none;fontColor=#fffffb;fillStyle=auto;" parent="1" vertex="1">
          <mxGeometry x="150" y="242" width="160" height="60" as="geometry" />
        </mxCell>
        <mxCell id="OnMQXUsQuM_lED_xJwlF-56" value="Micro Service" style="rounded=1;whiteSpace=wrap;html=1;comic=0;fillColor=#777DA7;fontSize=16;strokeColor=none;fontColor=#fffffb;fillStyle=auto;" parent="1" vertex="1">
          <mxGeometry x="150" y="470" width="160" height="60" as="geometry" />
        </mxCell>
        <mxCell id="OnMQXUsQuM_lED_xJwlF-57" value="Micro Service" style="rounded=1;whiteSpace=wrap;html=1;comic=0;fillColor=#777DA7;fontSize=16;strokeColor=none;fontColor=#fffffb;fillStyle=auto;" parent="1" vertex="1">
          <mxGeometry x="150" y="352" width="160" height="60" as="geometry" />
        </mxCell>
        <mxCell id="OnMQXUsQuM_lED_xJwlF-58" value="Micro Service" style="rounded=1;whiteSpace=wrap;html=1;comic=0;fillColor=#777DA7;fontSize=16;strokeColor=none;fontColor=#fffffb;fillStyle=auto;" parent="1" vertex="1">
          <mxGeometry x="370" y="242" width="160" height="60" as="geometry" />
        </mxCell>
        <mxCell id="OnMQXUsQuM_lED_xJwlF-59" value="Micro Service" style="rounded=1;whiteSpace=wrap;html=1;comic=0;fillColor=#777DA7;fontSize=16;strokeColor=none;fontColor=#fffffb;fillStyle=auto;" parent="1" vertex="1">
          <mxGeometry x="370" y="470" width="160" height="60" as="geometry" />
        </mxCell>
        <mxCell id="OnMQXUsQuM_lED_xJwlF-60" value="Micro Service" style="rounded=1;whiteSpace=wrap;html=1;comic=0;fillColor=#777DA7;fontSize=16;strokeColor=none;fontColor=#fffffb;fillStyle=auto;" parent="1" vertex="1">
          <mxGeometry x="370" y="352" width="160" height="60" as="geometry" />
        </mxCell>
        <mxCell id="w3q-HAxAk2p2rQf9QFaI-1" value="管理系统" style="rounded=0;whiteSpace=wrap;html=1;fontSize=18;strokeColor=#31393c;" parent="1" vertex="1">
          <mxGeometry y="-427.5" width="120" height="60" as="geometry" />
        </mxCell>
        <mxCell id="w3q-HAxAk2p2rQf9QFaI-2" value="系统" style="rounded=0;whiteSpace=wrap;html=1;fontSize=18;strokeColor=#31393c;" parent="1" vertex="1">
          <mxGeometry x="275" y="-427.5" width="120" height="60" as="geometry" />
        </mxCell>
        <mxCell id="w3q-HAxAk2p2rQf9QFaI-4" style="rounded=0;orthogonalLoop=1;jettySize=auto;html=1;entryX=0.5;entryY=0;entryDx=0;entryDy=0;endArrow=none;endFill=0;exitX=0.5;exitY=1;exitDx=0;exitDy=0;strokeColor=#2E282A;strokeWidth=2;" parent="1" edge="1">
          <mxGeometry relative="1" as="geometry">
            <mxPoint x="-232" y="-367.5" as="sourcePoint" />
            <mxPoint x="-198" y="-72.5" as="targetPoint" />
            <Array as="points" />
          </mxGeometry>
        </mxCell>
        <mxCell id="UNmhw7URokJWCJeyuWq6-1" value="App 1.0.1" style="rounded=0;whiteSpace=wrap;html=1;verticalAlign=top;strokeColor=#31393c;fontSize=14;" vertex="1" parent="1">
          <mxGeometry x="440" y="52" width="84" height="100" as="geometry" />
        </mxCell>
      </root>
    </mxGraphModel>
  </diagram>
  <diagram id="htdMLA_ThMbDkw1qVR1s" name="流程图">
    <mxGraphModel dx="1422" dy="762" grid="1" gridSize="10" guides="1" tooltips="1" connect="1" arrows="1" fold="1" page="1" pageScale="1" pageWidth="827" pageHeight="1169" math="0" shadow="0">
      <root>
        <mxCell id="0" />
        <mxCell id="1" parent="0" />
        <mxCell id="DoAOZ_LCY8oud2q8RfJg-65" value="" style="edgeStyle=orthogonalEdgeStyle;rounded=0;orthogonalLoop=1;jettySize=auto;html=1;fontSize=12;fontColor=#000000;strokeColor=#000000;strokeWidth=1;" parent="1" source="DoAOZ_LCY8oud2q8RfJg-67" target="DoAOZ_LCY8oud2q8RfJg-64" edge="1">
          <mxGeometry relative="1" as="geometry">
            <mxPoint x="170" y="270" as="sourcePoint" />
          </mxGeometry>
        </mxCell>
        <mxCell id="DoAOZ_LCY8oud2q8RfJg-64" value="划分用户&lt;br&gt;灰度版本和标准版本" style="whiteSpace=wrap;html=1;verticalAlign=middle;fillColor=#FFFFFF;strokeColor=default;fontColor=#000000;sketch=0;fillStyle=auto;perimeterSpacing=1;" parent="1" vertex="1">
          <mxGeometry x="294" y="240" width="120" height="60" as="geometry" />
        </mxCell>
        <mxCell id="DoAOZ_LCY8oud2q8RfJg-71" value="" style="edgeStyle=orthogonalEdgeStyle;rounded=0;orthogonalLoop=1;jettySize=auto;html=1;fontSize=12;fontColor=#000000;strokeColor=#000000;strokeWidth=1;" parent="1" source="DoAOZ_LCY8oud2q8RfJg-66" target="DoAOZ_LCY8oud2q8RfJg-70" edge="1">
          <mxGeometry relative="1" as="geometry" />
        </mxCell>
        <mxCell id="DoAOZ_LCY8oud2q8RfJg-72" value="登录" style="edgeLabel;html=1;align=center;verticalAlign=middle;resizable=0;points=[];fontSize=12;fontColor=#000000;" parent="DoAOZ_LCY8oud2q8RfJg-71" vertex="1" connectable="0">
          <mxGeometry x="-0.3028" y="-2" relative="1" as="geometry">
            <mxPoint as="offset" />
          </mxGeometry>
        </mxCell>
        <mxCell id="DoAOZ_LCY8oud2q8RfJg-66" value="用户&amp;nbsp;" style="points=[[0.35,0,0],[0.98,0.51,0],[1,0.71,0],[0.67,1,0],[0,0.795,0],[0,0.65,0]];verticalLabelPosition=bottom;sketch=0;html=1;verticalAlign=top;aspect=fixed;align=center;pointerEvents=1;shape=mxgraph.cisco19.user;fillColor=#005073;strokeColor=none;dashed=1;fillStyle=auto;fontSize=12;fontColor=#000000;" parent="1" vertex="1">
          <mxGeometry x="125" y="405" width="60" height="60" as="geometry" />
        </mxCell>
        <mxCell id="DoAOZ_LCY8oud2q8RfJg-67" value="运维人员" style="shape=umlActor;verticalLabelPosition=bottom;verticalAlign=top;html=1;outlineConnect=0;fillStyle=auto;fontSize=12;fontColor=#000000;strokeColor=default;strokeWidth=2;fillColor=#FFFFFF;" parent="1" vertex="1">
          <mxGeometry x="125" y="240" width="45" height="60" as="geometry" />
        </mxCell>
        <mxCell id="56spZcowOMYv-jyEKFKR-2" value="" style="edgeStyle=orthogonalEdgeStyle;rounded=0;orthogonalLoop=1;jettySize=auto;html=1;fontSize=12;fontColor=#000000;strokeColor=#000000;strokeWidth=1;" parent="1" source="DoAOZ_LCY8oud2q8RfJg-70" target="56spZcowOMYv-jyEKFKR-1" edge="1">
          <mxGeometry relative="1" as="geometry" />
        </mxCell>
        <mxCell id="DoAOZ_LCY8oud2q8RfJg-70" value="前端界面" style="whiteSpace=wrap;html=1;verticalAlign=middle;sketch=0;fillStyle=auto;" parent="1" vertex="1">
          <mxGeometry x="294" y="405" width="120" height="60" as="geometry" />
        </mxCell>
        <mxCell id="56spZcowOMYv-jyEKFKR-8" value="" style="edgeStyle=orthogonalEdgeStyle;rounded=0;orthogonalLoop=1;jettySize=auto;html=1;fontSize=12;fontColor=#000000;strokeColor=#000000;strokeWidth=1;startArrow=none;" parent="1" source="56spZcowOMYv-jyEKFKR-9" target="56spZcowOMYv-jyEKFKR-7" edge="1">
          <mxGeometry relative="1" as="geometry" />
        </mxCell>
        <mxCell id="56spZcowOMYv-jyEKFKR-11" value="否" style="edgeLabel;html=1;align=center;verticalAlign=middle;resizable=0;points=[];fontSize=12;fontColor=#000000;" parent="56spZcowOMYv-jyEKFKR-8" vertex="1" connectable="0">
          <mxGeometry x="-0.3111" y="6" relative="1" as="geometry">
            <mxPoint as="offset" />
          </mxGeometry>
        </mxCell>
        <mxCell id="56spZcowOMYv-jyEKFKR-1" value="istio-gateway" style="whiteSpace=wrap;html=1;verticalAlign=middle;sketch=0;fillStyle=auto;" parent="1" vertex="1">
          <mxGeometry x="494" y="405" width="120" height="60" as="geometry" />
        </mxCell>
        <mxCell id="56spZcowOMYv-jyEKFKR-7" value="标准版" style="whiteSpace=wrap;html=1;verticalAlign=middle;sketch=0;fillStyle=auto;" parent="1" vertex="1">
          <mxGeometry x="840" y="405" width="120" height="60" as="geometry" />
        </mxCell>
        <mxCell id="56spZcowOMYv-jyEKFKR-13" value="" style="edgeStyle=orthogonalEdgeStyle;rounded=0;orthogonalLoop=1;jettySize=auto;html=1;fontSize=12;fontColor=#000000;strokeColor=#000000;strokeWidth=1;" parent="1" source="56spZcowOMYv-jyEKFKR-9" target="56spZcowOMYv-jyEKFKR-12" edge="1">
          <mxGeometry relative="1" as="geometry" />
        </mxCell>
        <mxCell id="56spZcowOMYv-jyEKFKR-14" value="是" style="edgeLabel;html=1;align=center;verticalAlign=middle;resizable=0;points=[];fontSize=12;fontColor=#000000;" parent="56spZcowOMYv-jyEKFKR-13" vertex="1" connectable="0">
          <mxGeometry x="-0.3" relative="1" as="geometry">
            <mxPoint as="offset" />
          </mxGeometry>
        </mxCell>
        <mxCell id="56spZcowOMYv-jyEKFKR-9" value="是否携带cookie" style="rhombus;whiteSpace=wrap;html=1;fillStyle=auto;fontSize=12;fontColor=#000000;strokeColor=default;strokeWidth=1;fillColor=#FFFFFF;" parent="1" vertex="1">
          <mxGeometry x="680" y="395" width="80" height="80" as="geometry" />
        </mxCell>
        <mxCell id="56spZcowOMYv-jyEKFKR-10" value="" style="edgeStyle=orthogonalEdgeStyle;rounded=0;orthogonalLoop=1;jettySize=auto;html=1;fontSize=12;fontColor=#000000;strokeColor=#000000;strokeWidth=1;endArrow=none;" parent="1" source="56spZcowOMYv-jyEKFKR-1" target="56spZcowOMYv-jyEKFKR-9" edge="1">
          <mxGeometry relative="1" as="geometry">
            <mxPoint x="614" y="435" as="sourcePoint" />
            <mxPoint x="887" y="375" as="targetPoint" />
          </mxGeometry>
        </mxCell>
        <mxCell id="56spZcowOMYv-jyEKFKR-16" value="" style="edgeStyle=orthogonalEdgeStyle;rounded=0;orthogonalLoop=1;jettySize=auto;html=1;fontSize=12;fontColor=#000000;strokeColor=#000000;strokeWidth=1;exitX=0.5;exitY=1;exitDx=0;exitDy=0;" parent="1" source="56spZcowOMYv-jyEKFKR-12" target="56spZcowOMYv-jyEKFKR-15" edge="1">
          <mxGeometry relative="1" as="geometry" />
        </mxCell>
        <mxCell id="56spZcowOMYv-jyEKFKR-18" style="edgeStyle=orthogonalEdgeStyle;rounded=0;orthogonalLoop=1;jettySize=auto;html=1;fontSize=12;fontColor=#000000;strokeColor=#000000;strokeWidth=1;" parent="1" source="56spZcowOMYv-jyEKFKR-12" target="56spZcowOMYv-jyEKFKR-17" edge="1">
          <mxGeometry relative="1" as="geometry" />
        </mxCell>
        <mxCell id="56spZcowOMYv-jyEKFKR-20" style="edgeStyle=orthogonalEdgeStyle;rounded=0;orthogonalLoop=1;jettySize=auto;html=1;fontSize=12;fontColor=#000000;strokeColor=#000000;strokeWidth=1;exitX=0.5;exitY=1;exitDx=0;exitDy=0;" parent="1" source="56spZcowOMYv-jyEKFKR-12" target="56spZcowOMYv-jyEKFKR-19" edge="1">
          <mxGeometry relative="1" as="geometry" />
        </mxCell>
        <mxCell id="56spZcowOMYv-jyEKFKR-12" value="判断 cookie: appMode" style="whiteSpace=wrap;html=1;fillColor=#FFFFFF;fontColor=#000000;fillStyle=auto;strokeWidth=1;" parent="1" vertex="1">
          <mxGeometry x="660" y="575" width="120" height="60" as="geometry" />
        </mxCell>
        <mxCell id="56spZcowOMYv-jyEKFKR-15" value="标准版" style="whiteSpace=wrap;html=1;fillColor=#FFFFFF;fontColor=#000000;fillStyle=auto;strokeWidth=1;" parent="1" vertex="1">
          <mxGeometry x="500" y="715" width="120" height="60" as="geometry" />
        </mxCell>
        <mxCell id="56spZcowOMYv-jyEKFKR-17" value="抢先体验版" style="whiteSpace=wrap;html=1;fillColor=#FFFFFF;fontColor=#000000;fillStyle=auto;strokeWidth=1;" parent="1" vertex="1">
          <mxGeometry x="660" y="715" width="120" height="60" as="geometry" />
        </mxCell>
        <mxCell id="56spZcowOMYv-jyEKFKR-19" value="其他版本" style="whiteSpace=wrap;html=1;fillColor=#FFFFFF;fontColor=#000000;fillStyle=auto;strokeWidth=1;" parent="1" vertex="1">
          <mxGeometry x="827" y="715" width="120" height="60" as="geometry" />
        </mxCell>
      </root>
    </mxGraphModel>
  </diagram>
  <diagram id="Lj4i5xikGkeL3RPXpjpq" name="纯 Nginx 方案">
    <mxGraphModel dx="1412" dy="556" grid="1" gridSize="10" guides="1" tooltips="1" connect="1" arrows="1" fold="1" page="1" pageScale="1" pageWidth="827" pageHeight="1169" math="0" shadow="0">
      <root>
        <mxCell id="0" />
        <mxCell id="1" parent="0" />
        <mxCell id="R74xd2Scuc7fx_sakegf-1" value="" style="edgeStyle=orthogonalEdgeStyle;rounded=0;orthogonalLoop=1;jettySize=auto;html=1;fontSize=12;fontColor=#000000;strokeColor=#000000;strokeWidth=1;" edge="1" parent="1">
          <mxGeometry relative="1" as="geometry">
            <mxPoint x="185" y="428" as="sourcePoint" />
            <mxPoint x="294" y="428" as="targetPoint" />
          </mxGeometry>
        </mxCell>
        <mxCell id="R74xd2Scuc7fx_sakegf-2" value="登录" style="edgeLabel;html=1;align=center;verticalAlign=middle;resizable=0;points=[];fontSize=12;fontColor=#000000;" vertex="1" connectable="0" parent="R74xd2Scuc7fx_sakegf-1">
          <mxGeometry x="-0.3028" y="-2" relative="1" as="geometry">
            <mxPoint as="offset" />
          </mxGeometry>
        </mxCell>
        <mxCell id="R74xd2Scuc7fx_sakegf-3" value="用户&amp;nbsp;" style="points=[[0.35,0,0],[0.98,0.51,0],[1,0.71,0],[0.67,1,0],[0,0.795,0],[0,0.65,0]];verticalLabelPosition=bottom;sketch=0;html=1;verticalAlign=top;aspect=fixed;align=center;pointerEvents=1;shape=mxgraph.cisco19.user;fillColor=#005073;strokeColor=none;dashed=1;fillStyle=auto;fontSize=12;fontColor=#000000;" vertex="1" parent="1">
          <mxGeometry x="125" y="405" width="60" height="60" as="geometry" />
        </mxCell>
        <mxCell id="R74xd2Scuc7fx_sakegf-4" value="" style="edgeStyle=orthogonalEdgeStyle;rounded=0;orthogonalLoop=1;jettySize=auto;html=1;fontSize=12;fontColor=#000000;strokeColor=#000000;strokeWidth=1;" edge="1" parent="1" source="R74xd2Scuc7fx_sakegf-5" target="R74xd2Scuc7fx_sakegf-8">
          <mxGeometry relative="1" as="geometry" />
        </mxCell>
        <mxCell id="Kba4ZXhFFM90eQ3G9MbU-1" value="set-cookie" style="edgeStyle=orthogonalEdgeStyle;rounded=0;orthogonalLoop=1;jettySize=auto;html=1;endArrow=classic;endFill=1;" edge="1" parent="1" source="R74xd2Scuc7fx_sakegf-5" target="R74xd2Scuc7fx_sakegf-3">
          <mxGeometry relative="1" as="geometry">
            <Array as="points">
              <mxPoint x="210" y="450" />
              <mxPoint x="210" y="450" />
            </Array>
          </mxGeometry>
        </mxCell>
        <mxCell id="R74xd2Scuc7fx_sakegf-5" value="前端界面" style="whiteSpace=wrap;html=1;verticalAlign=middle;sketch=0;fillStyle=auto;" vertex="1" parent="1">
          <mxGeometry x="294" y="405" width="120" height="60" as="geometry" />
        </mxCell>
        <mxCell id="R74xd2Scuc7fx_sakegf-6" value="" style="edgeStyle=orthogonalEdgeStyle;rounded=0;orthogonalLoop=1;jettySize=auto;html=1;fontSize=12;fontColor=#000000;strokeColor=#000000;strokeWidth=1;startArrow=none;" edge="1" parent="1" source="R74xd2Scuc7fx_sakegf-12" target="R74xd2Scuc7fx_sakegf-9">
          <mxGeometry relative="1" as="geometry" />
        </mxCell>
        <mxCell id="R74xd2Scuc7fx_sakegf-7" value="否" style="edgeLabel;html=1;align=center;verticalAlign=middle;resizable=0;points=[];fontSize=12;fontColor=#000000;" vertex="1" connectable="0" parent="R74xd2Scuc7fx_sakegf-6">
          <mxGeometry x="-0.3111" y="6" relative="1" as="geometry">
            <mxPoint as="offset" />
          </mxGeometry>
        </mxCell>
        <mxCell id="R74xd2Scuc7fx_sakegf-8" value="Nginx" style="shape=hexagon;perimeter=hexagonPerimeter2;whiteSpace=wrap;html=1;fixedSize=1;fontFamily=Helvetica;fontSize=12;fontColor=default;align=center;strokeColor=default;fillColor=default;sketch=0;fillStyle=auto;direction=south;" vertex="1" parent="1">
          <mxGeometry x="520" y="396" width="63" height="78" as="geometry" />
        </mxCell>
        <mxCell id="R74xd2Scuc7fx_sakegf-9" value="标准版" style="whiteSpace=wrap;html=1;verticalAlign=middle;sketch=0;fillStyle=auto;" vertex="1" parent="1">
          <mxGeometry x="840" y="405" width="120" height="60" as="geometry" />
        </mxCell>
        <mxCell id="R74xd2Scuc7fx_sakegf-10" value="" style="edgeStyle=orthogonalEdgeStyle;rounded=0;orthogonalLoop=1;jettySize=auto;html=1;fontSize=12;fontColor=#000000;strokeColor=#000000;strokeWidth=1;" edge="1" parent="1" source="R74xd2Scuc7fx_sakegf-12" target="R74xd2Scuc7fx_sakegf-17">
          <mxGeometry relative="1" as="geometry" />
        </mxCell>
        <mxCell id="R74xd2Scuc7fx_sakegf-11" value="是" style="edgeLabel;html=1;align=center;verticalAlign=middle;resizable=0;points=[];fontSize=12;fontColor=#000000;" vertex="1" connectable="0" parent="R74xd2Scuc7fx_sakegf-10">
          <mxGeometry x="-0.3" relative="1" as="geometry">
            <mxPoint as="offset" />
          </mxGeometry>
        </mxCell>
        <mxCell id="R74xd2Scuc7fx_sakegf-12" value="是否携带cookie" style="rhombus;whiteSpace=wrap;html=1;fillStyle=auto;fontSize=12;fontColor=#000000;strokeColor=default;strokeWidth=1;fillColor=#FFFFFF;" vertex="1" parent="1">
          <mxGeometry x="680" y="395" width="80" height="80" as="geometry" />
        </mxCell>
        <mxCell id="R74xd2Scuc7fx_sakegf-13" value="" style="edgeStyle=orthogonalEdgeStyle;rounded=0;orthogonalLoop=1;jettySize=auto;html=1;fontSize=12;fontColor=#000000;strokeColor=#000000;strokeWidth=1;endArrow=classic;endFill=1;" edge="1" parent="1" source="R74xd2Scuc7fx_sakegf-8" target="R74xd2Scuc7fx_sakegf-12">
          <mxGeometry relative="1" as="geometry">
            <mxPoint x="614" y="435" as="sourcePoint" />
            <mxPoint x="887" y="375" as="targetPoint" />
          </mxGeometry>
        </mxCell>
        <mxCell id="R74xd2Scuc7fx_sakegf-14" value="" style="edgeStyle=orthogonalEdgeStyle;rounded=0;orthogonalLoop=1;jettySize=auto;html=1;fontSize=12;fontColor=#000000;strokeColor=#000000;strokeWidth=1;exitX=0.5;exitY=1;exitDx=0;exitDy=0;" edge="1" parent="1" source="R74xd2Scuc7fx_sakegf-17" target="R74xd2Scuc7fx_sakegf-18">
          <mxGeometry relative="1" as="geometry" />
        </mxCell>
        <mxCell id="R74xd2Scuc7fx_sakegf-15" style="edgeStyle=orthogonalEdgeStyle;rounded=0;orthogonalLoop=1;jettySize=auto;html=1;fontSize=12;fontColor=#000000;strokeColor=#000000;strokeWidth=1;" edge="1" parent="1" source="R74xd2Scuc7fx_sakegf-17" target="R74xd2Scuc7fx_sakegf-19">
          <mxGeometry relative="1" as="geometry" />
        </mxCell>
        <mxCell id="R74xd2Scuc7fx_sakegf-16" style="edgeStyle=orthogonalEdgeStyle;rounded=0;orthogonalLoop=1;jettySize=auto;html=1;fontSize=12;fontColor=#000000;strokeColor=#000000;strokeWidth=1;exitX=0.5;exitY=1;exitDx=0;exitDy=0;" edge="1" parent="1" source="R74xd2Scuc7fx_sakegf-17" target="R74xd2Scuc7fx_sakegf-20">
          <mxGeometry relative="1" as="geometry" />
        </mxCell>
        <mxCell id="R74xd2Scuc7fx_sakegf-17" value="判断 cookie: appMode" style="whiteSpace=wrap;html=1;fillColor=#FFFFFF;fontColor=#000000;fillStyle=auto;strokeWidth=1;" vertex="1" parent="1">
          <mxGeometry x="660" y="575" width="120" height="60" as="geometry" />
        </mxCell>
        <mxCell id="R74xd2Scuc7fx_sakegf-18" value="标准版" style="whiteSpace=wrap;html=1;fillColor=#FFFFFF;fontColor=#000000;fillStyle=auto;strokeWidth=1;" vertex="1" parent="1">
          <mxGeometry x="500" y="715" width="120" height="60" as="geometry" />
        </mxCell>
        <mxCell id="R74xd2Scuc7fx_sakegf-19" value="抢先体验版" style="whiteSpace=wrap;html=1;fillColor=#FFFFFF;fontColor=#000000;fillStyle=auto;strokeWidth=1;" vertex="1" parent="1">
          <mxGeometry x="660" y="715" width="120" height="60" as="geometry" />
        </mxCell>
        <mxCell id="R74xd2Scuc7fx_sakegf-20" value="其他版本" style="whiteSpace=wrap;html=1;fillColor=#FFFFFF;fontColor=#000000;fillStyle=auto;strokeWidth=1;" vertex="1" parent="1">
          <mxGeometry x="827" y="715" width="120" height="60" as="geometry" />
        </mxCell>
      </root>
    </mxGraphModel>
  </diagram>
</mxfile>
